<?xml version="1.0" standalone="no"?>
<!DOCTYPE svg PUBLIC "-//W3C//DTD SVG 20010904//EN"
 "http://www.w3.org/TR/2001/REC-SVG-20010904/DTD/svg10.dtd">
<svg version="1.0" xmlns="http://www.w3.org/2000/svg"
 width="400.000000pt" height="400.000000pt" viewBox="0 0 400.000000 400.000000"
 preserveAspectRatio="xMidYMid meet">
<metadata>
Created by potrace 1.11, written by Peter Selinger 2001-2013
</metadata>
<g transform="translate(0.000000,400.000000) scale(0.100000,-0.100000)"
fill="#000000" stroke="none">
<path d="M1070 2513 c-226 -19 -427 -189 -471 -401 -15 -74 -6 -232 17 -297
33 -95 92 -176 177 -242 15 -12 24 -23 20 -25 -4 -3 -69 -4 -143 -3 -74 1
-141 0 -147 -3 -14 -4 -18 -51 -5 -53 29 -5 2936 -3 2944 2 5 3 8 17 6 30 l-3
24 -162 0 c-90 0 -163 0 -163 0 0 0 24 18 53 39 125 91 197 244 197 419 0 144
-45 252 -150 358 -134 136 -313 181 -530 135 -97 -21 -240 -128 -302 -226 -85
-133 -96 -335 -29 -493 26 -61 99 -153 151 -191 22 -17 40 -32 40 -35 0 -5
-600 -6 -620 -2 -3 0 -4 66 -2 145 l3 144 100 -2 c54 0 100 1 100 4 1 3 2 38
3 78 l2 72 -241 0 -241 0 1 -75 c0 -59 3 -75 15 -76 8 -1 54 -1 103 -1 l88 -1
-3 -146 -3 -146 -241 0 -242 0 57 52 56 52 -55 55 -55 56 -43 -35 c-82 -65
-126 -80 -232 -80 -82 0 -103 4 -150 26 -66 32 -133 97 -165 159 -73 145 -39
330 79 432 30 26 106 65 141 71 146 29 243 8 349 -76 l39 -31 53 59 54 59 -47
43 c-101 90 -254 138 -403 126z m1906 -173 c145 -48 252 -211 239 -367 -8
-100 -33 -160 -97 -229 -111 -120 -277 -147 -430 -68 -37 19 -113 96 -133 134
-71 137 -56 312 35 417 47 55 119 102 176 117 59 15 156 14 210 -4z"/>
</g>
</svg>
